<?xml version="1.0" encoding="UTF-8" standalone="no"?>
<!-- Created with Inkscape (http://www.inkscape.org/) -->

<svg
   version="1.1"
   id="svg1"
   width="288.67447"
   height="408.88773"
   viewBox="0 0 288.67447 408.88773"
   xmlns="http://www.w3.org/2000/svg"
   xmlns:svg="http://www.w3.org/2000/svg">

  <defs
     id="defs1" />
  <g
     id="g1"
     transform="translate(-388.65164,-241.31876)">
    <path
       style="fill:#131416"
       d="m 428,648.55181 c -17.82235,-4.73059 -32.23216,-18.73027 -37.40462,-36.34001 -3.01017,-10.24818 -2.33931,-185.92801 0.74241,-194.41806 5.78502,-15.93756 20.7483,-28.00112 37.48575,-30.22142 4.99254,-0.66228 4.99254,-0.66228 5.3345,14.88353 0.44041,20.02154 5.07309,27.03203 15.74952,23.83329 10.28205,-3.08057 12.24648,-16.9121 3.07551,-21.65459 -3.28024,-1.69628 -5.00515,-64.56973 -1.73307,-63.17082 81.13758,34.68865 82.95755,35.27144 94.25,30.18109 8.5996,-3.87649 69.40092,-29.50152 69.99918,-29.50152 2.68448,0 0.21094,61.64009 -2.52209,62.84985 -9.24497,4.09222 -7.25666,18.18846 2.99893,21.26111 10.81522,3.24032 15.4296,-3.69296 15.84625,-23.80959 0.32228,-15.55974 0.32228,-15.55974 6,-14.92731 13.99098,1.55843 29.04976,12.82265 35.59538,26.62594 4.05563,8.55244 5.52175,186.25631 1.64205,199.02935 -5.31415,17.49568 -22.08229,32.58865 -39.94619,35.95546 -9.32303,1.75711 -200.32474,1.22565 -207.11351,-0.5763 z M 637.26784,626.44164 C 655.92478,617.82636 656,617.44152 656,530.60579 c 0,-72.46249 0,-72.46249 -123.02489,-72.46249 -123.02489,0 -123.02489,0 -122.75,73.75 0.27489,73.75 0.27489,73.75 2.6978,78.67291 3.98143,8.08953 12.07591,14.86854 21.07709,17.65176 7.02929,2.17349 198.33461,0.5017 203.26784,-1.77633 z m -2.60117,-251.96503 c -1.90049,-1.90048 0.33616,-14.57525 3.72939,-21.1339 2.71503,-5.24778 2.91973,-35.43468 0.23451,-34.58228 -1.02819,0.32639 -11.37819,4.62993 -23,9.56341 -93.9454,39.88004 -70.81406,38.93833 -149.13057,6.07128 -90.09453,-33.65829 -77.93898,-33.90221 5.5,-68.80096 20.075,-8.39553 41.40397,-17.33151 47.39772,-19.85773 14.70304,-6.19701 16.00299,-6.1289 34.87395,1.82719 8.37558,3.53119 36.82833,15.49712 63.22833,26.59097 59.52246,25.01262 62.14679,27.14119 43.16329,35.00942 -6.70101,2.77741 -8.82809,32.57424 -3.22911,45.23452 2.62625,5.93841 5.02637,17.1022 4.16142,19.35621 -0.56325,1.46781 -25.51415,2.13666 -26.92893,0.72187 z"
       id="path1" />
    <g
       id="g5"
       transform="translate(-48.258733,203.01247)">
      <g
         id="g23"
         transform="translate(5.3057188,-276.77007)">
        <g
           id="g14"
           transform="translate(21.386534,-26.174564)">
          <rect
             style="fill:#131416;stroke-width:18.8976"
             id="rect13"
             width="45.819122"
             height="41.756306"
             x="560.96295"
             y="572.38843"
             rx="8"
             ry="8" />
          <rect
             style="fill:#131416;stroke-width:18.8976"
             id="rect14"
             width="45.819122"
             height="41.756306"
             x="618.76086"
             y="572.38843"
             rx="8"
             ry="8" />
        </g>
        <g
           id="g18"
           transform="translate(22.024938,27.132169)">
          <rect
             style="fill:#131416;stroke-width:18.8976"
             id="rect15"
             width="45.819122"
             height="41.756306"
             x="445.36703"
             y="572.38843"
             rx="8"
             ry="8" />
          <rect
             style="fill:#131416;stroke-width:18.8976"
             id="rect16"
             width="45.819122"
             height="41.756306"
             x="503.16501"
             y="572.38843"
             rx="8"
             ry="8" />
          <rect
             style="fill:#131416;stroke-width:18.8976"
             id="rect17"
             width="45.819122"
             height="41.756306"
             x="560.96295"
             y="572.38843"
             rx="8"
             ry="8" />
          <rect
             style="fill:#131416;stroke-width:18.8976"
             id="rect18"
             width="45.819122"
             height="41.756306"
             x="618.76086"
             y="572.38843"
             rx="8"
             ry="8" />
        </g>
        <g
           id="g22"
           transform="translate(21.386534,80.438902)">
          <rect
             style="fill:#131416;stroke-width:18.8976"
             id="rect19"
             width="45.819122"
             height="41.756306"
             x="445.36703"
             y="572.38843"
             rx="8"
             ry="8" />
          <rect
             style="fill:#131416;stroke-width:18.8976"
             id="rect20"
             width="45.819122"
             height="41.756306"
             x="503.16501"
             y="572.38843"
             rx="8"
             ry="8" />
          <rect
             style="fill:#131416;stroke-width:18.8976"
             id="rect21"
             width="45.819122"
             height="41.756306"
             x="560.96295"
             y="572.38843"
             rx="8"
             ry="8" />
          <rect
             style="fill:#131416;stroke-width:18.8976"
             id="rect22"
             width="45.819122"
             height="41.756306"
             x="618.76086"
             y="572.38843"
             rx="8"
             ry="8" />
        </g>
      </g>
    </g>
  </g>
</svg>
